<?xml version="1.0" standalone="no"?>
<!DOCTYPE svg PUBLIC "-//W3C//DTD SVG 20010904//EN"
 "http://www.w3.org/TR/2001/REC-SVG-20010904/DTD/svg10.dtd">
<svg version="1.0" xmlns="http://www.w3.org/2000/svg"
 width="1500.000000pt" height="1500.000000pt" viewBox="0 0 1500.000000 1500.000000"
 preserveAspectRatio="xMidYMid meet">
<metadata>
Created by potrace 1.16, written by Peter Selinger 2001-2019
</metadata>
<g transform="translate(0.000000,1500.000000) scale(0.100000,-0.100000)"
fill="#000000" stroke="none">
<path d="M7300 4780 l0 -460 963 0 c529 0 1161 -3 1405 -7 289 -4 442 -3 442
4 0 25 -467 280 -733 400 -511 230 -1079 401 -1590 478 -144 22 -362 45 -429
45 l-58 0 0 -460z"/>
<path d="M7785 3629 c-287 -42 -536 -193 -720 -437 -184 -245 -267 -517 -267
-877 0 -418 113 -726 358 -985 204 -214 436 -315 755 -327 268 -11 478 45 683
181 95 63 244 203 270 254 17 33 17 34 -10 75 -40 61 -170 230 -193 251 -18
17 -22 15 -115 -68 -209 -186 -333 -244 -536 -253 -83 -4 -135 -1 -189 11
-258 55 -452 271 -533 593 -19 76 -22 114 -22 283 0 179 2 203 27 295 55 207
165 375 309 471 213 142 511 147 734 13 31 -19 106 -80 167 -136 61 -57 118
-103 128 -103 25 0 75 63 152 191 74 123 81 157 45 205 -142 190 -387 324
-663 364 -83 11 -296 11 -380 -1z"/>
<path d="M2490 2325 l0 -1285 255 0 255 0 0 459 0 458 48 -4 c208 -15 437 -21
507 -12 224 28 443 164 545 338 138 235 169 598 73 841 -108 269 -306 414
-629 459 -72 11 -680 31 -921 31 l-133 0 0 -1285z m690 850 c157 -11 273 -27
336 -46 83 -26 151 -87 190 -171 26 -57 29 -73 29 -168 0 -95 -3 -111 -28
-162 -36 -73 -119 -149 -195 -179 -48 -20 -76 -23 -177 -23 -66 0 -168 3 -227
8 l-108 8 0 375 0 375 48 -6 c26 -3 85 -8 132 -11z"/>
<path d="M9430 3595 c-212 -7 -418 -14 -457 -14 l-73 -1 0 -1270 0 -1270 28 0
c15 0 126 7 247 15 121 8 226 15 233 15 9 0 12 111 12 520 l0 520 169 0 170 0
76 -82 c210 -229 378 -555 441 -858 9 -47 20 -88 24 -93 10 -12 496 -37 732
-37 l216 0 30 83 c16 45 62 180 103 299 l74 218 471 0 472 0 26 -72 c14 -40
62 -174 105 -298 l79 -225 292 -3 c281 -2 291 -2 288 17 -2 10 -201 582 -443
1270 l-440 1251 -331 0 -331 0 -419 -1205 c-230 -662 -422 -1201 -425 -1197
-3 4 -20 57 -38 117 -102 343 -263 649 -443 841 l-49 52 75 46 c135 84 236
221 282 381 26 91 32 507 9 610 -37 170 -186 301 -405 360 -89 23 -319 26
-800 10z m420 -365 c134 -21 229 -91 282 -206 19 -41 23 -66 23 -159 0 -100
-3 -116 -29 -173 -40 -87 -112 -151 -202 -181 -61 -20 -96 -24 -286 -28 l-218
-6 0 382 0 381 183 0 c100 0 211 -5 247 -10z m2265 -672 c82 -291 146 -530
143 -533 -3 -3 -156 -4 -340 -3 l-336 3 186 543 c102 299 189 537 192 530 4
-7 74 -250 155 -540z"/>
</g>
</svg>
